<svg width="85" height="85" viewBox="0 0 85 85" fill="none" xmlns="http://www.w3.org/2000/svg">
<path d="M56.0965 13.7533L56.0941 13.757C56.1041 13.7898 56.1139 13.8252 56.1211 13.8608C56.4082 14.8225 55.9646 15.8811 55.0746 16.3855C55.0745 16.3855 55.0745 16.3855 55.0744 16.3856L55.0444 16.4028L54.9699 16.2725L55.0444 16.4028C54.6375 16.6354 54.3718 17.071 54.3406 17.5699C54.283 18.5073 53.8606 19.6918 53.1127 21.0783C52.3631 22.4677 51.2796 24.0724 49.8851 25.8531L49.8851 25.8532C49.4726 26.3795 49.2059 26.9903 49.105 27.6393C49.9048 28.0632 51.612 29.13 52.7458 31.0292C52.8395 31.1855 52.8655 31.3749 52.8138 31.5494C52.762 31.7299 51.6027 35.6894 48.7287 40.5768L48.7287 40.5768C46.0689 45.097 41.3734 51.2702 34.1147 54.9781L34.1142 54.9783C34.0911 54.99 34.0577 55.0062 34.0237 55.0174C33.8122 55.0874 33.5766 55.048 33.4003 54.902L56.0965 13.7533ZM56.0965 13.7533L56.0702 13.6819M56.0965 13.7533L56.0702 13.6819M56.0702 13.6819C55.7268 12.7487 54.9206 12.1147 53.9238 11.9898C52.9036 11.8614 51.9098 12.3056 51.3285 13.1453L51.3283 13.1456M56.0702 13.6819L51.3283 13.1456M51.3283 13.1456C47.9019 18.1194 45.8968 24.6886 45.6678 25.4551C45.5061 25.7613 45.3474 26.0662 45.1909 26.3669L45.1724 26.4025C36.1023 43.7899 33.2678 53.9095 33.1828 54.213L33.1811 54.2192L33.1811 54.2192M51.3283 13.1456L33.1811 54.2192M33.1811 54.2192L33.1808 54.2203M33.1811 54.2192L33.1808 54.2203M33.1808 54.2203C33.1116 54.4712 33.2011 54.7381 33.4002 54.9018L33.1808 54.2203ZM54.4507 15.2326C54.8086 15.0176 54.9781 14.5991 54.8689 14.2396L54.8344 14.1352C54.6638 13.6717 54.2622 13.3587 53.7582 13.2952L54.4507 15.2326ZM54.4507 15.2326L54.4317 15.2435L54.4016 15.2607C54.4015 15.2608 54.4014 15.2608 54.4012 15.2609C53.6013 15.7148 53.0932 16.5508 53.0346 17.4876C52.9798 18.356 52.384 20.5371 48.8571 25.0414C48.7606 25.1635 48.6749 25.2883 48.5936 25.4151L47.2719 24.7505C48.0024 22.5651 49.8009 17.6744 52.4077 13.893L52.408 13.8926C52.5851 13.6339 52.8367 13.4516 53.1251 13.3562C53.3239 13.2904 53.5407 13.2681 53.7581 13.2952L54.4507 15.2326ZM34.0465 54.8445C41.2695 51.1548 45.947 45.0085 48.5994 40.5007L33.4959 54.7864C33.631 54.8984 33.8124 54.9293 33.9766 54.875C33.9995 54.8674 34.0247 54.8555 34.0465 54.8445ZM47.8921 27.0352L46.6507 26.411C46.7169 26.2849 46.7838 26.1594 46.8522 26.0313L46.8608 26.0151L48.0177 26.5968C47.969 26.7414 47.9271 26.8875 47.8921 27.0352ZM46.9133 25.8807L46.9133 25.8806L46.9133 25.8807ZM47.584 39.9346L47.584 39.9347C45.1859 44.0059 41.0924 49.444 34.9194 53.0445C36.0132 49.6687 39.1879 40.7979 46.0422 27.5784L48.1157 28.621L48.1157 28.621L48.1157 28.621L48.1157 28.621L48.1158 28.621L48.1158 28.6211L48.1158 28.6211L48.1158 28.6211L48.1159 28.6211L48.1159 28.6211L48.1159 28.6211L48.1159 28.6211L48.116 28.6211L48.116 28.6212L48.116 28.6212L48.116 28.6212L48.1161 28.6212L48.1161 28.6212L48.1161 28.6212L48.1161 28.6212L48.1162 28.6212L48.1162 28.6213L48.1162 28.6213L48.1162 28.6213L48.1163 28.6213L48.1163 28.6213L48.1163 28.6213L48.1163 28.6213L48.1164 28.6213L48.1164 28.6214L48.1164 28.6214L48.1165 28.6214L48.1165 28.6214L48.1165 28.6214L48.1165 28.6214L48.1166 28.6214L48.1166 28.6215L48.1166 28.6215L48.1166 28.6215L48.1167 28.6215L48.1167 28.6215L48.1167 28.6215L48.1167 28.6215L48.1168 28.6215L48.1168 28.6216L48.1168 28.6216L48.1168 28.6216L48.1169 28.6216L48.1169 28.6216L48.1169 28.6216L48.1169 28.6216L48.117 28.6216L48.117 28.6217L48.117 28.6217L48.117 28.6217L48.1171 28.6217L48.1171 28.6217L48.1171 28.6217L48.1171 28.6217L48.1172 28.6217L48.1172 28.6218L48.1172 28.6218L48.1172 28.6218L48.1173 28.6218L48.1173 28.6218L48.1173 28.6218L48.1173 28.6218L48.1174 28.6218L48.1174 28.6219L48.1174 28.6219L48.1174 28.6219L48.1175 28.6219L48.1175 28.6219L48.1175 28.6219L48.1175 28.6219L48.1176 28.6219L48.1176 28.622L48.1176 28.622L48.1176 28.622L48.1177 28.622L48.1177 28.622L48.1177 28.622L48.1177 28.622L48.1178 28.622L48.1178 28.6221L48.1178 28.6221L48.1178 28.6221L48.1179 28.6221L48.1179 28.6221L48.1179 28.6221L48.1179 28.6221L48.118 28.6222L48.118 28.6222L48.118 28.6222L48.118 28.6222L48.1181 28.6222L48.1181 28.6222L48.1181 28.6222L48.1181 28.6222L48.1182 28.6223L48.1182 28.6223L48.1182 28.6223L48.1183 28.6223L48.1183 28.6223L48.1183 28.6223L48.1183 28.6223L48.1184 28.6223L48.1184 28.6224L48.1184 28.6224L48.1184 28.6224L48.1185 28.6224L48.1185 28.6224L48.1185 28.6224L48.1185 28.6224L48.1186 28.6224L48.1186 28.6225L48.1186 28.6225L48.1186 28.6225L48.1187 28.6225L48.1187 28.6225L48.1187 28.6225L48.1187 28.6225L48.1188 28.6226L48.1188 28.6226L48.1188 28.6226L48.1188 28.6226L48.1189 28.6226L48.1189 28.6226L48.1189 28.6226L48.1189 28.6226L48.119 28.6227L48.119 28.6227L48.119 28.6227L48.119 28.6227L48.1191 28.6227L48.1191 28.6227L48.1191 28.6227L48.1191 28.6227L48.1192 28.6228L48.1192 28.6228L48.1192 28.6228L48.1193 28.6228L48.1193 28.6228L48.1193 28.6228L48.1193 28.6228L48.1194 28.6228L48.1194 28.6229L48.1194 28.6229L48.1194 28.6229L48.1195 28.6229L48.1195 28.6229L48.1195 28.6229L48.1195 28.6229L48.1196 28.623L48.1196 28.623L48.1196 28.623L48.1196 28.623L48.1197 28.623L48.1197 28.623L48.1197 28.623L48.1197 28.623L48.1198 28.6231L48.1198 28.6231L48.1198 28.6231L48.1198 28.6231L48.1199 28.6231L48.1199 28.6231L48.1199 28.6231L48.1199 28.6231L48.12 28.6232L48.12 28.6232L48.12 28.6232L48.1201 28.6232L48.1201 28.6232L48.1201 28.6232L48.1201 28.6232L48.1202 28.6232L48.1202 28.6233L48.1202 28.6233L48.1202 28.6233L48.1203 28.6233L48.1203 28.6233L48.1203 28.6233L48.1203 28.6233L48.1204 28.6234L48.1204 28.6234L48.1204 28.6234L48.1204 28.6234L48.1205 28.6234L48.1205 28.6234L48.1205 28.6234L48.1205 28.6234L48.1206 28.6235L48.1206 28.6235L48.1206 28.6235L48.1206 28.6235L48.1207 28.6235L48.1207 28.6235L48.1207 28.6235L48.1207 28.6235L48.1208 28.6236L48.1208 28.6236L48.1208 28.6236L48.1209 28.6236L48.1209 28.6236L48.1209 28.6236L48.1209 28.6236L48.121 28.6237L48.121 28.6237L48.121 28.6237L48.121 28.6237L48.1211 28.6237L48.1211 28.6237L48.1211 28.6237L48.1211 28.6237L48.1212 28.6238L48.1212 28.6238L48.1212 28.6238L48.1212 28.6238L48.1213 28.6238L48.1213 28.6238L48.1213 28.6238L48.1213 28.6238L48.1214 28.6239L48.1214 28.6239L48.1214 28.6239L48.1214 28.6239L48.1215 28.6239L48.1215 28.6239L48.1215 28.6239L48.1215 28.624L48.1216 28.624L48.1216 28.624L48.1216 28.624L48.1217 28.624L48.1217 28.624L48.1217 28.624L48.1217 28.624L48.1218 28.6241L48.1218 28.6241L48.1218 28.6241L48.1218 28.6241L48.1219 28.6241L48.1219 28.6241L48.1219 28.6241L48.1219 28.6241L48.122 28.6242L48.122 28.6242L48.122 28.6242L48.122 28.6242L48.1221 28.6242L48.1221 28.6242L48.1221 28.6242L48.1221 28.6243L48.1222 28.6243L48.1222 28.6243L48.1222 28.6243L48.1222 28.6243L48.1223 28.6243L48.1223 28.6243L48.1223 28.6243L48.1224 28.6244L48.1224 28.6244L48.1224 28.6244L48.1224 28.6244L48.1225 28.6244L48.1225 28.6244L48.1225 28.6244L48.1225 28.6244L48.1226 28.6245L48.1226 28.6245L48.1226 28.6245L48.1226 28.6245L48.1227 28.6245L48.1227 28.6245L48.1227 28.6245L48.1227 28.6245L48.1228 28.6246L48.1228 28.6246L48.1228 28.6246L48.1228 28.6246L48.1229 28.6246L48.1229 28.6246L48.1229 28.6246L48.1229 28.6247L48.123 28.6247L48.123 28.6247L48.123 28.6247L48.123 28.6247L48.1231 28.6247L48.1231 28.6247L48.1231 28.6247L48.1232 28.6248L48.1232 28.6248L48.1232 28.6248L48.1232 28.6248L48.1233 28.6248L48.1233 28.6248L48.1233 28.6248L48.1233 28.6248L48.1234 28.6249L48.1234 28.6249L48.1234 28.6249L48.1234 28.6249L48.1235 28.6249L48.1235 28.6249L48.1235 28.6249L48.1235 28.625L48.1236 28.625L48.1236 28.625L48.1236 28.625L48.1236 28.625L48.1237 28.625L48.1237 28.625L48.1237 28.625L48.1237 28.6251L48.1238 28.6251L48.1238 28.6251L48.1238 28.6251L48.1239 28.6251L48.1239 28.6251L48.1239 28.6251L48.1239 28.6251L48.124 28.6252L48.124 28.6252L48.124 28.6252L48.124 28.6252L48.1241 28.6252L48.1241 28.6252L48.1241 28.6252L48.1241 28.6253L48.1242 28.6253L48.1242 28.6253L48.1242 28.6253L48.1242 28.6253L48.1243 28.6253L48.1243 28.6253L48.1243 28.6253L48.1243 28.6254L48.1244 28.6254L48.1244 28.6254L48.1244 28.6254L48.1244 28.6254L48.1245 28.6254L48.1245 28.6254L48.1245 28.6254L48.1245 28.6255L48.1246 28.6255L48.1246 28.6255L48.1246 28.6255L48.1247 28.6255L48.1247 28.6255L48.1247 28.6255L48.1247 28.6255L48.1248 28.6256L48.1248 28.6256L48.1248 28.6256L48.1248 28.6256L48.1249 28.6256L48.1249 28.6256L48.1249 28.6256L48.1249 28.6257L48.125 28.6257L48.125 28.6257L48.125 28.6257L48.125 28.6257L48.1251 28.6257L48.1251 28.6257L48.1251 28.6257L48.1251 28.6258L48.1252 28.6258L48.1252 28.6258L48.1252 28.6258L48.1252 28.6258L48.1253 28.6258L48.1253 28.6258L48.1253 28.6258L48.1253 28.6259L48.1254 28.6259L48.1254 28.6259L48.1254 28.6259L48.1254 28.6259L48.1255 28.6259L48.1255 28.6259L48.1255 28.626L48.1256 28.626L48.1256 28.626L48.1256 28.626L48.1256 28.626L48.1257 28.626L48.1257 28.626L48.1257 28.626L48.1257 28.6261L48.1258 28.6261L48.1258 28.6261L48.1258 28.6261L48.1258 28.6261L48.1259 28.6261L48.1259 28.6261L48.1259 28.6261L48.1259 28.6262L48.126 28.6262L48.126 28.6262L48.126 28.6262L48.126 28.6262L48.1261 28.6262L48.1261 28.6262L48.1261 28.6262L48.1261 28.6263L48.1262 28.6263L48.1262 28.6263L48.1262 28.6263L48.1262 28.6263L48.1263 28.6263L48.1263 28.6263L48.1263 28.6263L48.1263 28.6264L48.1264 28.6264L48.1264 28.6264L48.1264 28.6264L48.1264 28.6264L48.1265 28.6264L48.1265 28.6264L48.1265 28.6265L48.1265 28.6265L48.1266 28.6265L48.1266 28.6265L48.1266 28.6265L48.1267 28.6265L48.1267 28.6265L48.1267 28.6265L48.1267 28.6266L48.1268 28.6266L48.1268 28.6266L48.1268 28.6266L48.1268 28.6266L48.1269 28.6266L48.1269 28.6266L48.1269 28.6266L48.1269 28.6267L48.127 28.6267L48.127 28.6267L48.127 28.6267L48.127 28.6267L48.1271 28.6267L48.1271 28.6267L48.1271 28.6267L48.1271 28.6268L48.1272 28.6268L48.1272 28.6268L48.1272 28.6268L48.1272 28.6268L48.1273 28.6268L48.1273 28.6268L48.1273 28.6268L48.1273 28.6269L48.1274 28.6269L48.1274 28.6269L48.1274 28.6269L48.1274 28.6269L48.1275 28.6269L48.1275 28.6269L48.1275 28.627L48.1275 28.627L48.1276 28.627L48.1276 28.627L48.1276 28.627L48.1276 28.627L48.1277 28.627L48.1277 28.627L48.1277 28.6271L48.1277 28.6271L48.1278 28.6271L48.1278 28.6271L48.1278 28.6271L48.1278 28.6271L48.1279 28.6271L48.1279 28.6271L48.1279 28.6272L48.1279 28.6272L48.128 28.6272L48.128 28.6272L48.128 28.6272L48.128 28.6272L48.1281 28.6272L48.1281 28.6272L48.1281 28.6273L48.1281 28.6273L48.1282 28.6273L48.1282 28.6273L48.1282 28.6273L48.1282 28.6273L48.1283 28.6273L48.1283 28.6273L48.1283 28.6274L48.1283 28.6274L48.1284 28.6274L48.1284 28.6274L48.1284 28.6274L48.1284 28.6274L48.1285 28.6274L48.1285 28.6274L48.1285 28.6275L48.1285 28.6275L48.1286 28.6275L48.1286 28.6275L48.1286 28.6275L48.1286 28.6275L48.1287 28.6275L48.1287 28.6275L48.1287 28.6276L48.1287 28.6276L48.1288 28.6276L48.1375 28.632L48.1461 28.6363L48.1617 28.6441L48.1678 28.6456L48.1808 28.6511C48.1869 28.6538 48.1943 28.6571 48.2029 28.6609C48.2156 28.6667 48.231 28.6737 48.2488 28.682C48.3082 28.7098 48.3943 28.7519 48.5017 28.8088C48.7164 28.9226 49.0151 29.0953 49.3538 29.3307C50.0185 29.7926 50.8324 30.4933 51.4674 31.461C51.1535 32.439 49.96 35.903 47.584 39.9346Z" fill="#111111" stroke="#111111" stroke-width="0.3"/>
<path d="M17.633 59.5778V59.6528H17.708H65.9058H65.9808V59.5778V57.9158V57.8408H65.9058H17.708H17.633V57.9158V59.5778ZM20.9756 66.1942L21.0244 66.2512L21.0814 66.2024L24.8673 62.9579L24.9242 62.9091L24.8754 62.8521L23.7939 61.5902L23.7451 61.5332L23.6882 61.582L19.9022 64.8265L19.8453 64.8753L19.8941 64.9323L20.9756 66.1942ZM30.3142 62.9579L30.3711 62.9091L30.3223 62.8521L29.2408 61.5902L29.192 61.5332L29.1351 61.582L25.3492 64.8265L25.2922 64.8753L25.341 64.9323L26.4225 66.1942L26.4713 66.2512L26.5283 66.2024L30.3142 62.9579ZM31.8694 66.1942L31.9182 66.2512L31.9752 66.2024L35.7611 62.9579L35.8181 62.9091L35.7692 62.8521L34.6877 61.5902L34.6389 61.5332L34.582 61.582L30.7961 64.8265L30.7391 64.8753L30.7879 64.9323L31.8694 66.1942ZM41.208 62.9579L41.265 62.9091L41.2162 62.8521L40.1347 61.5902L40.0859 61.5332L40.0289 61.582L36.243 64.8265L36.1861 64.8753L36.2349 64.9323L37.3164 66.1942L37.3652 66.2512L37.4221 66.2024L41.208 62.9579ZM47.5675 66.1942L47.6163 66.2512L47.6732 66.2024L51.4591 62.9579L51.5161 62.9091L51.4673 62.8521L50.3858 61.5902L50.337 61.5332L50.28 61.582L46.4941 64.8265L46.4372 64.8753L46.486 64.9323L47.5675 66.1942ZM46.6549 62.9579L46.7119 62.9091L46.6631 62.8521L45.5816 61.5902L45.5328 61.5332L45.4758 61.582L41.6899 64.8265L41.633 64.8753L41.6818 64.9323L42.7633 66.1942L42.8121 66.2512L42.869 66.2024L46.6549 62.9579ZM53.0144 66.1942L53.0632 66.2512L53.1201 66.2024L56.9061 62.9579L56.963 62.9091L56.9142 62.8521L55.8327 61.5902L55.7839 61.5332L55.7269 61.582L51.941 64.8265L51.8841 64.8753L51.9329 64.9323L53.0144 66.1942ZM58.0004 66.1943L58.0492 66.2512L58.1061 66.2024L61.892 62.9579L61.949 62.9091L61.9002 62.8522L60.8187 61.5902L60.7699 61.5333L60.7129 61.5821L56.927 64.8266L56.8701 64.8754L56.9189 64.9323L58.0004 66.1943Z" fill="#111111" stroke="#111111" stroke-width="0.15"/>
<rect x="0.75" y="0.75" width="83.5" height="83.5" rx="41.75" stroke="#111111" stroke-width="1.5"/>
</svg>
